<?xml version="1.0" encoding="UTF-8"?>
<svg width="37px" height="37px" viewBox="0 0 37 37" version="1.1" xmlns="http://www.w3.org/2000/svg" xmlns:xlink="http://www.w3.org/1999/xlink">
    <!-- Generator: Sketch 48.2 (47327) - http://www.bohemiancoding.com/sketch -->
    <title>2C</title>
    <desc>Created with Sketch.</desc>
    <defs></defs>
    <g id="Page-1" stroke="none" stroke-width="1" fill="none" fill-rule="evenodd">
        <g id="FREE100icons" transform="translate(-160.000000, -446.000000)" fill="#FFFFFF">
            <g id="C" transform="translate(15.000000, 439.000000)">
                <g id="2C" transform="translate(145.000000, 7.000000)">
                    <path d="M24.091,12.479 L15.1,21.359 L12.649,18.559 C12.104,17.933 11.155,17.871 10.532,18.417 C9.909,18.963 9.846,19.91 10.391,20.533 L13.891,24.533 C14.164,24.845 14.552,25.03 14.965,25.045 C14.984,25.046 15.002,25.046 15.02,25.046 C15.414,25.046 15.793,24.891 16.074,24.613 L26.199,14.613 C26.789,14.031 26.794,13.081 26.212,12.492 C25.63,11.901 24.681,11.897 24.091,12.479 M33.445,31.158 C33.445,32.537 32.323,33.658 30.945,33.658 L5.72,33.658 C4.342,33.658 3.22,32.537 3.22,31.158 L3.22,5.934 C3.22,4.556 4.342,3.434 5.72,3.434 L30.945,3.434 C32.323,3.434 33.445,4.556 33.445,5.934 L33.445,31.158 Z M30.945,0.434 L5.72,0.434 C2.688,0.434 0.22,2.901 0.22,5.934 L0.22,31.158 C0.22,34.19 2.688,36.658 5.72,36.658 L30.945,36.658 C33.978,36.658 36.445,34.19 36.445,31.158 L36.445,5.934 C36.445,2.901 33.978,0.434 30.945,0.434 Z"></path>
                </g>
            </g>
        </g>
    </g>
</svg>