<?xml version="1.0" encoding="UTF-8"?>
<svg width="57px" height="57px" viewBox="0 0 57 57" version="1.1" xmlns="http://www.w3.org/2000/svg" xmlns:xlink="http://www.w3.org/1999/xlink">
    <!-- Generator: Sketch 48.2 (47327) - http://www.bohemiancoding.com/sketch -->
    <title>Monero</title>
    <desc>Created with Sketch.</desc>
    <defs></defs>
    <g id="Coins" stroke="none" stroke-width="1" fill="none" fill-rule="evenodd" transform="translate(-95.000000, -213.000000)">
        <g transform="translate(95.000000, 82.000000)" fill-rule="nonzero" id="Monero">
            <g transform="translate(0.221336, 130.981395)">
                <path d="M51.1395019,43.2502326 L40.1370273,43.2502326 L40.1370273,28.1302326 L27.9022755,40.3493023 L15.6675238,28.1302326 L15.6675238,43.2502326 L4.66504922,43.2502326 L4.31297004,43.2502326 C9.24207865,51.0739535 17.9560385,56.3483721 27.9022755,56.3483721 C37.8485126,56.3483721 46.5624724,51.1618605 51.491581,43.2502326 L51.1395019,43.2502326 Z" id="Shape" fill="#4C4C4C"></path>
                <path d="M9.85821723,37.4483721 L9.85821723,14.2409302 L27.9022755,32.2618605 L45.9463339,14.2409302 L45.9463339,37.4483721 L54.3082145,37.4483721 C55.2764323,34.6353488 55.8045511,31.6465116 55.8045511,28.4818605 C55.8045511,13.0981395 43.30574,0.615348837 27.9022755,0.615348837 C12.4988111,0.615348837 0,13.0981395 0,28.4818605 C0,31.6465116 0.52811878,34.6353488 1.49633654,37.4483721 L9.85821723,37.4483721 Z" id="Shape" fill="#FF6B01"></path>
            </g>
        </g>
    </g>
</svg>